<svg width="146" height="36" viewBox="0 0 146 36" fill="none" xmlns="http://www.w3.org/2000/svg">
<path d="M134.664 25.6129C128.807 25.6129 124.04 21.3388 124.04 16.0858V8.5898C124.04 7.46785 125.054 6.55859 126.306 6.55859C127.556 6.55859 128.57 7.46785 128.57 8.5898V16.0858C128.57 19.0986 131.305 21.5506 134.664 21.5506C135.2 21.5506 135.73 21.4886 136.24 21.3668C137.449 21.0776 138.69 21.7218 139.012 22.806C139.335 23.8903 138.617 25.0026 137.408 25.2918C136.518 25.5045 135.594 25.6129 134.664 25.6129Z" fill="#FAFAFA"/>
<path d="M10.6245 25.6129C4.76649 25.6129 0 21.3388 0 16.0858C0 10.8328 4.76649 6.55859 10.6245 6.55859C13.4624 6.55859 16.1297 7.55006 18.1371 9.34907C18.562 9.73013 18.8004 10.2466 18.8004 10.7854C18.8004 11.3241 18.562 11.8406 18.1371 12.2218L12.2262 17.5222C11.3418 18.3153 9.90718 18.3153 9.02269 17.5222C8.1382 16.7289 8.1382 15.4426 9.02269 14.6495L13.0255 11.0601C12.2769 10.7718 11.4636 10.621 10.6245 10.621C7.2646 10.621 4.53028 13.0729 4.53028 16.0858C4.53028 19.0986 7.2646 21.5506 10.6245 21.5506C13.9843 21.5506 16.7187 19.0986 16.7187 16.0858C16.7187 14.9637 17.7326 14.0546 18.9839 14.0546C20.235 14.0546 21.2489 14.9637 21.2489 16.0858C21.2489 21.3398 16.4824 25.6129 10.6245 25.6129Z" fill="#FAFAFA"/>
<path d="M42.1421 25.6129C40.8908 25.6129 39.877 24.7038 39.877 23.5817V16.0858C39.877 13.0729 37.1427 10.621 33.7827 10.621C30.4228 10.621 27.6885 13.0729 27.6885 16.0858V23.5817C27.6885 24.7038 26.6745 25.6129 25.4234 25.6129C24.1722 25.6129 23.1582 24.7038 23.1582 23.5817V16.0858C23.1582 10.8328 27.9247 6.55859 33.7827 6.55859C39.6406 6.55859 44.4071 10.8328 44.4071 16.0858V23.5817C44.4071 24.7038 43.3932 25.6129 42.1421 25.6129Z" fill="#FAFAFA"/>
<path d="M58.8602 25.6139C57.609 25.6139 56.5952 24.7047 56.5952 23.5827V16.0868C56.5952 13.0739 53.8609 10.622 50.5008 10.622C49.4773 10.622 48.4655 10.853 47.5756 11.2913C46.4786 11.8309 45.1023 11.4711 44.5005 10.4875C43.8986 9.50385 44.2999 8.26969 45.3968 7.72989C46.9522 6.96481 48.718 6.56055 50.5008 6.56055C56.359 6.56055 61.1253 10.8348 61.1253 16.0878V23.5837C61.1253 24.7047 60.1115 25.6139 58.8602 25.6139Z" fill="#FAFAFA"/>
<path d="M65.3569 35.2261C64.1057 35.2261 63.0918 34.3169 63.0918 33.1949V16.0858C63.0918 10.8328 67.8583 6.55859 73.7163 6.55859C79.5742 6.55859 84.3407 10.8328 84.3407 16.0858C84.3407 21.3388 79.5742 25.6129 73.7163 25.6129C72.465 25.6129 71.4512 24.7038 71.4512 23.5817C71.4512 22.4598 72.465 21.5506 73.7163 21.5506C77.0761 21.5506 79.8104 19.0986 79.8104 16.0858C79.8104 13.0729 77.0761 10.621 73.7163 10.621C70.3564 10.621 67.6221 13.0729 67.6221 16.0858V33.1949C67.6221 34.3169 66.6081 35.2261 65.3569 35.2261Z" fill="#FAFAFA"/>
<path d="M105.104 25.6129C103.853 25.6129 102.839 24.7038 102.839 23.5817V16.0858C102.839 13.0729 100.104 10.621 96.7446 10.621C93.3847 10.621 90.6504 13.0729 90.6504 16.0858C90.6504 19.0986 93.3847 21.5506 96.7446 21.5506C97.9958 21.5506 99.0097 22.4598 99.0097 23.5817C99.0097 24.7038 97.9958 25.6129 96.7446 25.6129C90.8866 25.6129 86.1201 21.3388 86.1201 16.0858C86.1201 10.8328 90.8866 6.55859 96.7446 6.55859C102.603 6.55859 107.369 10.8328 107.369 16.0858V23.5817C107.369 24.7038 106.355 25.6129 105.104 25.6129Z" fill="#FAFAFA"/>
<path d="M119.923 25.6136C114.065 25.6136 109.299 21.3395 109.299 16.0865V2.80464C109.299 1.68257 110.313 0.773438 111.564 0.773438C112.815 0.773438 113.829 1.68257 113.829 2.80464V16.0875C113.829 19.1003 116.563 21.5522 119.923 21.5522C121.175 21.5522 122.189 22.4615 122.189 23.5834C122.189 24.7053 121.175 25.6136 119.923 25.6136Z" fill="#FAFAFA"/>
<path d="M117.216 10.621H111.564C110.313 10.621 109.299 9.71174 109.299 8.5898C109.299 7.46785 110.313 6.55859 111.564 6.55859H117.216C118.467 6.55859 119.481 7.46785 119.481 8.5898C119.481 9.71174 118.466 10.621 117.216 10.621Z" fill="#FAFAFA"/>
<path d="M142.961 35.2261C141.709 35.2261 140.695 34.3169 140.695 33.1949V8.5898C140.695 7.46785 141.709 6.55859 142.961 6.55859C144.211 6.55859 145.225 7.46785 145.225 8.5898V33.1949C145.225 34.3169 144.211 35.2261 142.961 35.2261Z" fill="#FAFAFA"/>
</svg>
