<svg width="451" height="120" viewBox="0 0 451 120" fill="none" xmlns="http://www.w3.org/2000/svg">
<path d="M417.853 86.3301C399.722 86.3301 384.924 71.5723 384.924 53.4026V27.497C384.924 23.6092 388.059 20.4751 391.946 20.4751C395.834 20.4751 398.969 23.6092 398.969 27.497V53.4026C398.969 63.7966 407.419 72.2864 417.853 72.2864C419.519 72.2864 421.146 72.088 422.733 71.6516C426.462 70.6598 430.31 72.8814 431.302 76.6106C432.294 80.3397 430.072 84.1879 426.343 85.2193C423.566 85.9731 420.71 86.3301 417.853 86.3301Z" fill="#BE185A"/>
<path d="M33.6181 86.3301C15.4874 86.3301 0.689331 71.5723 0.689331 53.4026C0.689331 35.233 15.4478 20.4751 33.6181 20.4751C42.4255 20.4751 50.6776 23.8869 56.9063 30.1153C58.2155 31.4245 58.9693 33.2097 58.9693 35.0743C58.9693 36.9389 58.2155 38.7241 56.9063 40.0333L38.5772 58.3616C35.8398 61.0989 31.3964 61.0989 28.6589 58.3616C25.9215 55.6242 25.9215 51.181 28.6589 48.4437L41.0767 36.0264C38.7756 35.0346 36.2365 34.5189 33.6578 34.5189C23.2634 34.5189 14.7733 43.0086 14.7733 53.4026C14.7733 63.7966 23.2237 72.2864 33.6578 72.2864C44.0521 72.2864 52.5422 63.7966 52.5422 53.4026C52.5422 49.5148 55.6764 46.3807 59.5644 46.3807C63.4523 46.3807 66.5865 49.5148 66.5865 53.4026C66.5072 71.5723 51.7487 86.3301 33.6181 86.3301Z" fill="#BE185A"/>
<path d="M131.254 86.3301C127.366 86.3301 124.232 83.1961 124.232 79.3082V53.4026C124.232 43.0086 115.781 34.5189 105.347 34.5189C94.9528 34.5189 86.4628 43.0086 86.4628 53.4026V79.3082C86.4628 83.1961 83.3286 86.3301 79.4406 86.3301C75.5526 86.3301 72.4185 83.1961 72.4185 79.3082V53.4026C72.4185 35.233 87.1769 20.4751 105.347 20.4751C123.518 20.4751 138.276 35.233 138.276 53.4026V79.3082C138.276 83.1961 135.102 86.3301 131.254 86.3301Z" fill="#BE185A"/>
<path d="M183.027 86.3301C179.139 86.3301 176.005 83.1961 176.005 79.3082V53.4026C176.005 43.0086 167.555 34.5189 157.121 34.5189C153.947 34.5189 150.813 35.3123 148.075 36.8198C144.663 38.6844 140.418 37.4546 138.554 34.0428C136.689 30.631 137.919 26.3862 141.331 24.5216C146.131 21.8636 151.606 20.4751 157.16 20.4751C175.291 20.4751 190.089 35.233 190.089 53.4026V79.3082C190.05 83.1961 186.915 86.3301 183.027 86.3301Z" fill="#BE185A"/>
<path d="M203.142 119.535C199.254 119.535 196.12 116.401 196.12 112.513V53.4026C196.12 35.233 210.878 20.4751 229.048 20.4751C247.219 20.4751 261.977 35.233 261.977 53.4026C261.977 71.5723 247.219 86.3301 229.048 86.3301C225.16 86.3301 222.026 83.1961 222.026 79.3082C222.026 75.4204 225.16 72.2864 229.048 72.2864C239.443 72.2864 247.933 63.7966 247.933 53.4026C247.933 43.0086 239.482 34.5189 229.048 34.5189C218.654 34.5189 210.164 43.0086 210.164 53.4026V112.513C210.164 116.401 207.03 119.535 203.142 119.535Z" fill="#BE185A"/>
<path d="M326.287 86.3301C322.399 86.3301 319.265 83.1961 319.265 79.3082V53.4026C319.265 43.0086 310.815 34.5189 300.381 34.5189C289.986 34.5189 281.496 43.0086 281.496 53.4026C281.496 63.7966 289.947 72.2864 300.381 72.2864C304.269 72.2864 307.403 75.4204 307.403 79.3082C307.403 83.1961 304.269 86.3301 300.381 86.3301C282.25 86.3301 267.452 71.5723 267.452 53.4026C267.452 35.233 282.21 20.4751 300.381 20.4751C318.511 20.4751 333.309 35.233 333.309 53.4026V79.3082C333.27 83.1961 330.136 86.3301 326.287 86.3301Z" fill="#BE185A"/>
<path d="M372.189 86.3301C354.059 86.3301 339.26 71.5722 339.26 53.4025V7.50236C339.26 3.61454 342.395 0.480469 346.283 0.480469C350.171 0.480469 353.305 3.61454 353.305 7.50236V53.4025C353.305 63.7965 361.755 72.2863 372.189 72.2863C376.077 72.2863 379.211 75.4203 379.211 79.3082C379.172 83.196 376.038 86.3301 372.189 86.3301Z" fill="#BE185A"/>
<path d="M363.779 34.5189H346.283C342.395 34.5189 339.26 31.3848 339.26 27.497C339.26 23.6092 342.395 20.4751 346.283 20.4751H363.779C367.667 20.4751 370.801 23.6092 370.801 27.497C370.801 31.3848 367.667 34.5189 363.779 34.5189Z" fill="#BE185A"/>
<path d="M443.522 119.535C439.634 119.535 436.499 116.401 436.499 112.513V27.497C436.499 23.6092 439.634 20.4751 443.522 20.4751C447.41 20.4751 450.544 23.6092 450.544 27.497V112.513C450.544 116.401 447.41 119.535 443.522 119.535Z" fill="#BE185A"/>
</svg>
